<svg xmlns:xlink="http://www.w3.org/1999/xlink" xmlns="http://www.w3.org/2000/svg" viewBox="0 0 104 103.69" width="40" height="40" class="PJLV"><g><g><rect fill="#77FF6E" x="20.56" y="28.6" width="62.88" height="54.75"/><path fill="black" d="M100.6,40.12a3.4,3.4,0,0,0-3.4,3.4,4.6,4.6,0,0,1-4,4.56V38.14A19.28,19.28,0,0,0,73.9,18.89H58.54C62.27,4.14,48.78,5,44.71.21a.53.53,0,0,0-1,.22C43.11,4.14,42.15,15,52,18.89H30.11A19.28,19.28,0,0,0,10.85,38.14v10A11.42,11.42,0,0,0,0,59.52a3.4,3.4,0,0,0,6.8,0A4.6,4.6,0,0,1,10.85,55V73.81A19.28,19.28,0,0,0,30.11,93.06h6.57v7.23a3.4,3.4,0,0,0,3.4,3.4H48.6a3.4,3.4,0,0,0,0-6.8H43.48V93.06h17v7.23a3.4,3.4,0,0,0,3.4,3.4h8.53a3.4,3.4,0,0,0,0-6.8H67.32V93.06H73.9A19.28,19.28,0,0,0,93.15,73.81V54.9A11.4,11.4,0,0,0,104,43.52,3.4,3.4,0,0,0,100.6,40.12ZM83.44,73.81a9.55,9.55,0,0,1-9.54,9.54H30.11a9.55,9.55,0,0,1-9.55-9.54V38.14a9.55,9.55,0,0,1,9.55-9.54H73.9a9.55,9.55,0,0,1,9.54,9.54Z"/><ellipse fill="black" cx="69.54" cy="55.97" rx="5.82" ry="8.25"/><ellipse fill="black" cx="46.18" cy="55.97" rx="5.82" ry="8.25"/></g></g></svg>
